<svg width="13" height="19" viewBox="0 0 13 19" fill="none" xmlns="http://www.w3.org/2000/svg">
<path d="M0.816 18.168C0.645334 18.168 0.496 18.1147 0.368 18.008C0.24 17.9013 0.176 17.7413 0.176 17.528V16.12C0.176 15.864 0.229333 15.6613 0.336 15.512C0.464 15.3627 0.656 15.2133 0.912 15.064L9.456 9.208L0.912 3.352C0.656 3.18133 0.464 3.02133 0.336 2.872C0.229333 2.72267 0.176 2.52 0.176 2.264L0.176 0.855999C0.176 0.642666 0.24 0.482666 0.368 0.375999C0.496 0.269333 0.645334 0.216 0.816 0.216C0.944 0.216 1.08267 0.258666 1.232 0.344C1.38133 0.407999 1.49867 0.471999 1.584 0.535999L11.632 7.448C11.9733 7.68267 12.208 7.90667 12.336 8.12C12.4853 8.33333 12.56 8.6 12.56 8.92V9.464C12.56 9.76267 12.4853 10.0293 12.336 10.264C12.208 10.4773 11.9733 10.7013 11.632 10.936L1.584 17.848C1.49867 17.912 1.38133 17.9867 1.232 18.072C1.08267 18.136 0.944 18.168 0.816 18.168Z" fill="#934D2A" fill-opacity="0.7"/>
</svg>
