<svg width="13" height="19" viewBox="0 0 13 19" fill="none" xmlns="http://www.w3.org/2000/svg">
<path d="M12.184 0.832C12.3547 0.832 12.504 0.885334 12.632 0.992C12.76 1.09867 12.824 1.25867 12.824 1.472L12.824 2.88C12.824 3.136 12.7707 3.33867 12.664 3.488C12.536 3.63733 12.344 3.78667 12.088 3.936L3.544 9.792L12.088 15.648C12.344 15.8187 12.536 15.9787 12.664 16.128C12.7707 16.2773 12.824 16.48 12.824 16.736L12.824 18.144C12.824 18.3573 12.76 18.5173 12.632 18.624C12.504 18.7307 12.3547 18.784 12.184 18.784C12.056 18.784 11.9173 18.7413 11.768 18.656C11.6187 18.592 11.5013 18.528 11.416 18.464L1.368 11.552C1.02666 11.3173 0.791998 11.0933 0.663998 10.88C0.514665 10.6667 0.439998 10.4 0.439998 10.08L0.439998 9.536C0.439998 9.23733 0.514664 8.97067 0.663998 8.736C0.791997 8.52267 1.02666 8.29867 1.368 8.064L11.416 1.152C11.5013 1.088 11.6187 1.01333 11.768 0.928C11.9173 0.864 12.056 0.832 12.184 0.832Z" fill="#934D2A" fill-opacity="0.7"/>
</svg>
